<svg xmlns="http://www.w3.org/2000/svg" viewBox="0 0 79.664 15.333"><path d="M2.23 6.586c-.208-.07-.374-.167-.5-.288s-.214-.267-.264-.435a1.82 1.82 0 0 1-.076-.535V.142H0V5.34a3.62 3.62 0 0 0 .159 1.1c.106.333.277.62.512.865.2.197.438.35.718.476.066.03.123.068.194.094.372.137.82.206 1.346.206h3.164V6.693H3.01c-.314 0-.575-.036-.782-.106M20.43 3.352h-1.906v1.212h1.764c.33 0 .575.088.735.264s.242.426.242.748c0 .33-.087.597-.26.805s-.455.312-.847.312h-1.317c-.777 0-1.337-.202-1.682-.606s-.517-1.06-.517-1.97c0-.918.174-1.578.523-1.983s.908-.605 1.677-.605h3.27V.142h-3.27c-1.16 0-2.05.327-2.664.982s-.923 1.652-.923 2.993c0 1.334.308 2.327.923 2.982s1.504.982 2.664.982h1.223c.447 0 .826-.065 1.135-.194s.565-.305.764-.53a2.04 2.04 0 0 0 .435-.788c.1-.302.135-.625.135-.97 0-.7-.172-1.237-.517-1.64s-.874-.606-1.588-.606m15.044 3.34c-.314 0-.575-.036-.782-.106s-.374-.167-.5-.288-.214-.266-.265-.434a1.84 1.84 0 0 1-.076-.535V.142h-1.388V5.34a3.62 3.62 0 0 0 .159 1.1c.106.333.277.62.51.865s.54.433.912.57.822.206 1.347.206h3.164V6.693zm-9.702-1.63l1.328-3.37c.08-.18.21-.27.4-.27s.318.1.388.27l1.272 3.37zM28.54.23C28.27.077 27.927 0 27.51 0c-.423 0-.77.076-1.04.23s-.48.417-.63.793L23.054 8.08h1.53l.693-1.76h4.36l.664 1.76h1.54l-2.68-7.058c-.14-.376-.347-.64-.618-.793M8.557.3c-.334.106-.608.255-.823.447a1.75 1.75 0 0 0-.477.688c-.052.135-.09.276-.115.423a2.62 2.62 0 0 0-.037.44v3.91a2.41 2.41 0 0 0 .104.496c.008.023.01.048.02.07.098.267.255.496.47.688s.5.343.823.452.736.165 1.206.165h4.023V6.692H9.727c-.407 0-.7-.088-.906-.264s-.294-.422-.294-.735c0-.643.404-.965 1.21-.965h4.01V3.47H9.775c-.808 0-1.212-.313-1.212-.94 0-.305.094-.55.282-.73s.494-.27.918-.27h3.987V.14H9.763C9.292.14 8.9.194 8.557.3" fill="#717171"/><path d="M59.862 0c-.423 0-.77.077-1.04.23s-.48.417-.63.793L54.78 9.71H.272c.102.225.228.434.4.612.19.197.438.348.718.476.066.03.123.067.194.094.372.137.82.206 1.347.206h52.832l3.69-9.405c.08-.18.21-.27.4-.27s.317.1.388.27l3.564 9.405h13.203c.493 0 .912-.066 1.27-.187.024-.008.054-.01.077-.02.072-.027.128-.064.194-.094.28-.127.527-.28.717-.476.17-.177.296-.387.4-.612H64.8l-3.3-8.688c-.14-.377-.347-.64-.618-.793S60.278 0 59.862 0zM37.15 12.856c-.72 0-1.2.58-1.2 1.242 0 .687.465 1.235 1.217 1.235a1.45 1.45 0 0 0 .962-.366v-.955h-.99v.243h.73v.595a1.13 1.13 0 0 1-.691.24c-.58 0-.947-.424-.947-1 0-.537.38-.986.9-.986a1.02 1.02 0 0 1 .729.274l.174-.205c-.24-.202-.49-.318-.892-.318zm-19.14.001c-.73 0-1.225.577-1.225 1.24s.488 1.235 1.217 1.235 1.225-.578 1.225-1.242-.49-1.235-1.217-1.235zm34.504 0c-.73 0-1.225.577-1.225 1.24s.49 1.235 1.217 1.235 1.224-.578 1.224-1.242-.49-1.235-1.217-1.235zm14.835 0c-.73 0-1.225.577-1.225 1.24s.49 1.235 1.217 1.235 1.225-.578 1.225-1.242-.49-1.235-1.217-1.235zm-6.76.006c-.455 0-.787.273-.787.657 0 .397.253.575.804.695.503.106.623.233.623.458 0 .243-.212.41-.534.41-.33 0-.57-.113-.82-.34l-.167.198a1.4 1.4 0 0 0 .978.383c.476 0 .818-.266.818-.68 0-.37-.246-.564-.78-.68-.527-.113-.65-.24-.65-.47 0-.22.198-.4.5-.4a1.05 1.05 0 0 1 .69.26l.158-.21a1.25 1.25 0 0 0-.842-.294zm2.497 0c-.455 0-.787.273-.787.657 0 .397.253.575.804.695.503.106.623.233.623.458 0 .243-.21.41-.533.41-.33 0-.57-.113-.82-.34l-.167.198a1.4 1.4 0 0 0 .978.383c.476 0 .818-.266.818-.68 0-.37-.247-.564-.78-.68-.527-.113-.65-.24-.65-.47 0-.22.198-.4.5-.4a1.05 1.05 0 0 1 .69.26l.158-.21a1.25 1.25 0 0 0-.842-.294zm15.666 0c-.455 0-.787.273-.787.657 0 .397.253.575.804.695.503.106.623.233.623.458 0 .243-.212.41-.534.41-.33 0-.57-.113-.82-.34l-.167.198a1.4 1.4 0 0 0 .978.383c.476 0 .818-.266.818-.68 0-.37-.247-.564-.78-.68-.527-.113-.65-.24-.65-.47 0-.22.198-.4.5-.4a1.05 1.05 0 0 1 .69.26l.158-.21a1.25 1.25 0 0 0-.842-.294zm-38.786.018l-1.09 2.41h.277l.284-.633h1.303l.28.633h.3l-1.09-2.41zm33.443 0l-1.09 2.41h.278l.284-.633h1.303l.28.633h.3l-1.09-2.41zm-71.772.01l-.657 2-.684-1.994H0l.855 2.412h.226l.66-1.944.657 1.944h.23l.855-2.412H3.2l-.684 1.994-.657-2zm19.83 0l-.657 2-.684-1.994h-.294l.855 2.412h.226l.66-1.944.657 1.944h.23l.855-2.412h-.284l-.684 1.994-.657-2zm-10.515.006v2.395h.264v-1.937l.872 1.28h.013l.872-1.283v1.94h.27v-2.395h-.274l-.872 1.308-.873-1.308zm-6.636.001v2.395h1.748v-.247H4.584v-.838H5.89v-.246H4.584v-.818h1.46v-.247zm4.002 0v2.395h1.748v-.247H8.586v-.838h1.306v-.246H8.586v-.818h1.46v-.247zm5.945 0v2.395h.27v-.845h.582c.51 0 .94-.267.94-.787 0-.475-.355-.763-.896-.763zm9.883 0v2.395h1.748v-.247h-1.477v-.838h1.307v-.246h-1.307v-.818h1.46v-.247zm2.633 0v2.395h.27v-.93h.684l.695.93h.332l-.736-.978c.377-.068.65-.3.65-.7 0-.43-.338-.715-.865-.715zm4.184 0v2.395h1.617v-.25H31.23v-2.145zm2.46 0v2.395h1.748v-.247H33.7v-.838h1.306v-.246H33.7v-.818h1.46v-.247zm8.702 0v2.395h1.617v-.25h-1.347v-2.145zm3.828 0v2.395h.27v-.845h.58c.51 0 .94-.267.94-.787 0-.475-.355-.763-.896-.763zm2.627 0v2.395h.27v-.93h.684l.695.93h.332l-.735-.978c.376-.068.65-.3.65-.7 0-.43-.338-.715-.866-.715zm6.065 0v2.395h.27V14.25h1.297v-.247h-1.297v-.855h1.45v-.25zm2.586 0v2.395h1.748v-.247h-1.477v-.838h1.307v-.246h-1.307v-.818h1.46v-.247zm7.687 0v2.395h.27v-2.395zm4.563 0v2.395h.263V13.33l1.547 1.963h.215v-2.395h-.263v1.92l-1.508-1.92zm6.09 0v2.395h1.617v-.25h-1.347v-2.145zM18 13.106c.548 0 .945.445.945.992s-.4.985-.937.985-.945-.445-.945-.992.39-.985.937-.985zm34.505 0c.548 0 .944.445.944.992s-.4.985-.937.985-.945-.445-.945-.992.4-.985.937-.985zm14.835 0c.548 0 .944.445.944.992s-.4.985-.937.985-.945-.445-.945-.992.4-.985.937-.985zm-52.808.04h.606c.387 0 .643.178.643.523 0 .318-.26.53-.657.53h-.592zm12.516 0h.74c.387 0 .612.178.612.476 0 .31-.256.496-.616.496h-.736zm19.174 0h.605c.387 0 .643.178.643.523 0 .318-.26.53-.657.53h-.592zm2.627 0h.74c.387 0 .612.178.612.476 0 .31-.256.496-.615.496h-.736zm-8.76.05l.544 1.22h-1.09zm33.444 0l.544 1.22h-1.09z" fill="#43548f"/><path d="M41.967.142c-.44 0-.816.056-1.13.17s-.57.273-.77.476a1.82 1.82 0 0 0-.435.723 2.94 2.94 0 0 0-.135.911c0 .275.037.55.112.824a1.85 1.85 0 0 0 .399.741c.192.22.457.396.794.53s.773.2 1.306.2h1.847c.243 0 .444.027.605.082s.288.128.382.218.16.196.2.318.06.245.06.37c0 .3-.09.527-.265.71s-.452.276-.83.276h-4.47V8.08h4.422c.455 0 .842-.06 1.16-.176a2.1 2.1 0 0 0 .782-.488 1.89 1.89 0 0 0 .447-.736c.094-.282.14-.592.14-.93 0-.282-.037-.564-.112-.847s-.21-.534-.41-.752-.472-.398-.818-.535-.788-.206-1.33-.206H42.06c-.235 0-.427-.026-.576-.077s-.27-.122-.36-.212a.74.74 0 0 1-.188-.306c-.035-.114-.053-.228-.053-.346 0-.275.082-.5.247-.677s.427-.264.788-.264h4.07V.142zm9.4 0c-1.16 0-2.05.327-2.664.982s-.923 1.653-.923 2.994c0 1.334.307 2.326.923 2.98s1.504.982 2.664.982h3.07V6.693h-3.07c-.777 0-1.337-.202-1.682-.606s-.517-1.06-.517-1.97c0-.918.174-1.58.523-1.983s.908-.605 1.676-.605h3.07V.142zm13.926 0V1.53h4.128c.377 0 .653.103.83.31s.264.458.264.748a1.27 1.27 0 0 1-.065.405c-.044.13-.108.246-.194.347a.93.93 0 0 1-.341.247c-.14.063-.31.094-.505.094H66.56c-.44 0-.757.1-.953.294s-.294.518-.294.965v3.14h1.388V5.21c0-.133.067-.2.2-.2h2.47c.463 0 .857-.074 1.182-.223a2.29 2.29 0 0 0 .794-.576 2.18 2.18 0 0 0 .441-.799c.1-.3.135-.597.135-.895a2.8 2.8 0 0 0-.147-.905 2.01 2.01 0 0 0-.458-.759c-.208-.215-.473-.388-.794-.518S69.82.142 69.372.142zm10.375 0c-.47 0-.873.052-1.206.158s-.608.256-.823.448-.375.422-.477.688c-.052.135-.1.276-.115.423a2.62 2.62 0 0 0-.037.44V6.21c.02.172.05.337.104.495l.02.07a1.69 1.69 0 0 0 .471.688 2.3 2.3 0 0 0 .823.453c.333.1.735.165 1.206.165h4.022V6.692H75.64c-.408 0-.71-.088-.905-.264s-.294-.422-.294-.735c0-.643.403-.964 1.21-.964h4.01V3.47h-3.975c-.808 0-1.212-.313-1.212-.94 0-.305.095-.55.283-.73s.494-.27.918-.27h3.987V.14z" fill="#43548e"/></svg>
