<?xml version="1.0" encoding="UTF-8"?><svg id="_オブジェクト" xmlns="http://www.w3.org/2000/svg" viewBox="0 0 368.69 113.39"><defs><style>.cls-1{fill:none;}.cls-1,.cls-2,.cls-3{stroke-width:0px;}.cls-2{fill:#485589;}.cls-3{fill:#6d737a;}</style></defs><path class="cls-1" d="M0,0v113.39h368.69V0H0Z"/><path class="cls-3" d="M35.2,51.77c-.82-.28-1.48-.66-1.98-1.14s-.85-1.06-1.05-1.73c-.21-.69-.31-1.4-.3-2.12v-20.57h-5.51v20.62c-.02,1.48.2,2.95.63,4.36.42,1.32,1.1,2.46,2.03,3.43.79.78,1.74,1.39,2.85,1.89.26.12.49.27.77.37,1.48.54,3.25.82,5.34.82h12.55v-5.51h-12.23c-1.25,0-2.28-.14-3.1-.42"/><path class="cls-3" d="M107.06,38.94h-7.56v4.81h7c1.31,0,2.28.35,2.92,1.05s.96,1.69.96,2.97-.35,2.37-1.03,3.19c-.69.82-1.8,1.24-3.36,1.24h-5.22c-3.08,0-5.3-.8-6.67-2.4s-2.05-4.2-2.05-7.81.69-6.26,2.07-7.87,3.6-2.4,6.65-2.4h12.97v-5.5h-12.97c-4.6,0-8.13,1.3-10.57,3.89s-3.66,6.55-3.66,11.87,1.22,9.23,3.66,11.83c2.44,2.6,5.97,3.89,10.57,3.89h4.85c1.77,0,3.28-.26,4.5-.77s2.24-1.21,3.03-2.1c.8-.9,1.39-1.97,1.73-3.13.4-1.2.54-2.48.54-3.85,0-2.78-.68-4.91-2.05-6.5-1.37-1.6-3.47-2.4-6.3-2.4"/><path class="cls-3" d="M168.27,52.2c-1.25,0-2.28-.14-3.1-.42s-1.48-.66-1.98-1.14-.85-1.06-1.05-1.72c-.2-.69-.31-1.4-.3-2.12v-20.58h-5.51v20.62c-.02,1.48.2,2.95.63,4.36.42,1.32,1.1,2.46,2.02,3.43s2.14,1.72,3.62,2.26c1.48.54,3.26.82,5.34.82h12.55v-5.51h-12.22Z"/><path class="cls-3" d="M60.32,26.85c-1.32.42-2.41,1.01-3.26,1.77-.84.74-1.49,1.68-1.89,2.73-.21.54-.36,1.09-.46,1.68-.1.58-.15,1.16-.15,1.75v15.51c.07.67.21,1.33.41,1.97.03.09.04.19.08.28.39,1.06,1.01,1.97,1.86,2.73s1.98,1.36,3.26,1.79,2.92.65,4.78.65h15.96v-5.5h-15.96c-1.61,0-2.78-.35-3.59-1.05s-1.17-1.67-1.17-2.92c0-2.55,1.6-3.83,4.8-3.83h15.9v-4.99h-15.75c-3.2,0-4.81-1.24-4.81-3.73,0-1.21.37-2.18,1.12-2.9s1.96-1.07,3.64-1.07h15.81v-5.51h-15.81c-1.87,0-3.42.21-4.78.63"/><path class="cls-2" d="M194.33,26.21c-1.75,0-3.24.22-4.48.67s-2.26,1.08-3.05,1.89c-.79.81-1.38,1.79-1.73,2.87-.37,1.17-.55,2.39-.54,3.61,0,1.09.15,2.18.44,3.27.29,1.09.84,2.09,1.58,2.94.76.87,1.81,1.57,3.15,2.1s3.07.79,5.18.79h7.33c.96,0,1.76.11,2.4.33s1.14.51,1.52.86.63.78.79,1.26.24.97.24,1.47c0,1.19-.36,2.09-1.05,2.82s-1.79,1.09-3.29,1.09h-17.73v5.51h17.54c1.8,0,3.34-.24,4.6-.7,1.16-.41,2.22-1.07,3.1-1.94.81-.82,1.41-1.82,1.77-2.92.37-1.12.56-2.35.56-3.69,0-1.12-.15-2.24-.44-3.36s-.83-2.12-1.63-2.98c-.79-.86-1.87-1.58-3.24-2.12s-3.13-.82-5.28-.82h-7.37c-.93,0-1.69-.1-2.28-.31s-1.07-.48-1.43-.84c-.34-.34-.6-.75-.75-1.21-.14-.45-.21-.9-.21-1.37,0-1.09.33-1.98.98-2.69s1.69-1.05,3.13-1.05h16.14v-5.5h-15.95Z"/><path class="cls-2" d="M230.92,26.21c-4.6,0-8.13,1.3-10.57,3.89-2.44,2.6-3.66,6.56-3.66,11.87s1.22,9.23,3.66,11.82c2.44,2.59,5.97,3.89,10.57,3.89h12.18v-5.5h-12.18c-3.08,0-5.3-.8-6.67-2.4-1.37-1.6-2.05-4.2-2.05-7.81s.69-6.27,2.07-7.87,3.6-2.4,6.65-2.4h12.18v-5.5h-12.18Z"/><path class="cls-2" d="M285.6,26.21v5.51h16.37c1.5,0,2.59.41,3.29,1.23.7.82,1.05,1.82,1.05,2.97,0,.55-.09,1.09-.26,1.61-.17.52-.43.98-.77,1.38-.37.43-.83.76-1.35.98-.56.25-1.23.37-2,.37h-11.3c-1.75,0-3,.4-3.78,1.17-.78.77-1.17,2.05-1.17,3.83v12.45h5.51v-11.38c0-.53.27-.79.79-.79h9.8c1.84,0,3.4-.29,4.69-.88,1.2-.53,2.28-1.3,3.15-2.28.8-.92,1.4-2,1.75-3.17.4-1.19.54-2.37.54-3.55,0-1.22-.19-2.43-.58-3.59-.37-1.13-.99-2.15-1.82-3.01-.82-.85-1.88-1.54-3.15-2.05s-2.79-.77-4.57-.77h-16.18Z"/><path class="cls-2" d="M326.48,26.22c-1.86,0-3.46.21-4.78.63s-2.41,1.02-3.26,1.78-1.49,1.67-1.89,2.73c-.21.54-.4,1.09-.46,1.68-.1.58-.15,1.16-.15,1.75v15.51c.08.68.2,1.34.41,1.96l.08.28c.39,1.05,1.03,1.99,1.87,2.73.95.82,2.06,1.43,3.26,1.8,1.32.4,2.92.65,4.78.65h15.97v-5.51h-15.95c-1.62,0-2.82-.35-3.59-1.05s-1.17-1.67-1.17-2.92c0-2.55,1.6-3.82,4.8-3.82h15.92v-4.99h-15.79c-3.2,0-4.81-1.24-4.81-3.73,0-1.21.38-2.18,1.12-2.9s1.96-1.07,3.64-1.07h15.83v-5.51h-15.86Z"/><path class="cls-3" d="M141.87,30.27c-.56-1.49-1.38-2.54-2.45-3.15h-.01c-1.07-.6-2.43-.91-4.09-.91s-3.05.3-4.12.91c-1.07.61-1.9,1.65-2.5,3.15l-10.83,27.43h6.07l2.53-6.42h17.29l2.42,6.42h6.11l-10.42-27.43ZM128.43,46.29l5.27-13.37c.32-.71.83-1.07,1.59-1.07s1.26.4,1.54,1.07l5.05,13.37h-13.44Z"/><polygon class="cls-2" points="36.34 85.37 33.73 77.44 32.85 77.44 30.24 85.37 27.53 77.44 26.36 77.44 29.75 87.03 30.64 87.03 33.26 79.32 35.87 87.03 36.78 87.03 40.17 77.44 39.05 77.44 36.34 85.37"/><polygon class="cls-2" points="44.54 82.72 49.72 82.72 49.72 81.75 44.54 81.75 44.54 78.42 50.33 78.42 50.33 77.44 43.47 77.44 43.47 87.03 50.41 87.03 50.41 86.05 44.54 86.05 44.54 82.72"/><polygon class="cls-2" points="62.48 82.72 67.66 82.72 67.66 81.75 62.48 81.75 62.48 78.42 68.27 78.42 68.27 77.44 61.41 77.44 61.41 87.03 68.35 87.03 68.35 86.05 62.48 86.05 62.48 82.72"/><polygon class="cls-2" points="123.61 82.72 128.79 82.72 128.79 81.75 123.61 81.75 123.61 78.42 129.4 78.42 129.4 77.44 122.55 77.44 122.55 87.03 129.48 87.03 129.48 86.05 123.61 86.05 123.61 82.72"/><path class="cls-2" d="M98.37,77.44h0c-2.83,0-4.74,2.24-4.74,4.81s1.89,4.78,4.71,4.78,4.74-2.24,4.74-4.81-1.9-4.78-4.71-4.78ZM98.36,86.06c-2.08,0-3.66-1.72-3.66-3.84s1.51-3.81,3.63-3.81,3.66,1.72,3.66,3.84-1.55,3.81-3.63,3.81Z"/><polygon class="cls-2" points="115.4 85.37 112.79 77.44 111.91 77.44 109.3 85.37 106.59 77.44 105.42 77.44 108.81 87.03 109.71 87.03 112.32 79.32 114.93 87.03 115.84 87.03 119.23 77.44 118.11 77.44 115.4 85.37"/><polygon class="cls-2" points="76.2 82.62 72.74 77.44 71.66 77.44 71.66 87.03 72.71 87.03 72.71 79.25 76.17 84.33 76.22 84.33 79.68 79.24 79.68 87.03 80.75 87.03 80.75 77.44 79.66 77.44 76.2 82.62"/><path class="cls-2" d="M87.62,77.44h-3.55v9.59h1.07v-3.44h2.31c2.02,0,3.73-1.06,3.73-3.12,0-1.88-1.41-3.03-3.55-3.03ZM87.48,82.6h-2.35v-4.18h2.4c1.54,0,2.55.71,2.55,2.07,0,1.26-1.03,2.1-2.61,2.1Z"/><path class="cls-2" d="M140.31,80.28c0-1.71-1.34-2.84-3.43-2.84h-4.09s0,9.58,0,9.58h1.07v-3.78h2.71l2.76,3.78h1.32l-2.92-3.97c1.5-.27,2.58-1.19,2.58-2.78ZM133.86,82.28v-3.86h2.94c1.53,0,2.43.71,2.43,1.89s-1.02,1.97-2.44,1.97h-2.92Z"/><polygon class="cls-2" points="162.33 82.72 167.51 82.72 167.51 81.75 162.33 81.75 162.33 78.42 168.12 78.42 168.12 77.44 161.27 77.44 161.27 87.03 168.2 87.03 168.2 86.05 162.33 86.05 162.33 82.72"/><path class="cls-2" d="M176,82.83h2.83v2.3c-.76.6-1.7.92-2.67.93-2.25,0-3.67-1.64-3.67-3.87,0-2.08,1.47-3.82,3.48-3.82,1.04-.03,2.06.35,2.82,1.06l.67-.79c-.93-.78-1.9-1.23-3.45-1.23h.03c-2.79,0-4.65,2.25-4.65,4.81s1.8,4.78,4.71,4.78c1.37,0,2.7-.5,3.72-1.42v-3.7h-3.83v.94Z"/><polygon class="cls-2" points="196.08 77.44 195.03 77.44 195.03 87.03 201.44 87.03 201.44 86.04 196.08 86.04 196.08 77.44"/><path class="cls-2" d="M186.82,77.44l-4.32,9.59h1.1l1.13-2.54h5.17l1.11,2.54h1.19l-4.32-9.59h-1.05ZM185.14,83.53l2.17-4.84,2.16,4.84h-4.32Z"/><polygon class="cls-2" points="152.72 77.44 151.66 77.44 151.66 87.03 158.07 87.03 158.07 86.04 152.72 86.04 152.72 77.44"/><polygon class="cls-2" points="256.81 82.72 261.99 82.72 261.99 81.75 256.81 81.75 256.81 78.42 262.6 78.42 262.6 77.44 255.75 77.44 255.75 87.03 262.68 87.03 262.68 86.05 256.81 86.05 256.81 82.72"/><path class="cls-2" d="M294.61,77.44h0c-2.83,0-4.74,2.24-4.74,4.81s1.89,4.78,4.71,4.78,4.74-2.24,4.74-4.81-1.9-4.78-4.71-4.78ZM294.61,86.06c-2.08,0-3.66-1.72-3.66-3.84s1.51-3.81,3.63-3.81,3.66,1.72,3.66,3.84-1.55,3.81-3.63,3.81Z"/><path class="cls-2" d="M237.93,77.44h0c-2.83,0-4.74,2.24-4.74,4.81s1.89,4.78,4.71,4.78,4.74-2.24,4.74-4.81-1.9-4.78-4.71-4.78ZM237.92,86.06c-2.08,0-3.66-1.72-3.66-3.84s1.51-3.81,3.63-3.81,3.66,1.72,3.66,3.84-1.55,3.81-3.63,3.81Z"/><path class="cls-2" d="M216,77.44h-3.55v9.59h1.07v-3.44h2.31c2.02,0,3.73-1.06,3.73-3.12,0-1.88-1.41-3.03-3.55-3.03ZM215.86,82.6h-2.35v-4.18h2.4c1.54,0,2.55.71,2.55,2.07,0,1.26-1.03,2.1-2.61,2.1Z"/><path class="cls-2" d="M230.4,80.28c0-1.71-1.34-2.84-3.43-2.84h-4.09s0,9.58,0,9.58h1.07v-3.78h2.71l2.76,3.78h1.32l-2.92-3.97c1.5-.27,2.58-1.19,2.58-2.78ZM223.95,82.28v-3.86h2.94c1.53,0,2.43.71,2.43,1.89s-1.02,1.97-2.44,1.97h-2.92Z"/><path class="cls-2" d="M317.88,77.44l-4.32,9.59h1.1l1.13-2.54h5.17l1.11,2.54h1.19l-4.32-9.59h-1.05ZM316.2,83.53l2.17-4.84,2.16,4.84h-4.32Z"/><polygon class="cls-2" points="327.64 77.44 326.58 77.44 326.58 87.03 333 87.03 333 86.04 327.64 86.04 327.64 77.44"/><path class="cls-2" d="M339.31,81.7c-2.04-.44-2.52-.93-2.52-1.82s.77-1.55,1.94-1.55c.98,0,1.93.36,2.67,1.01l.61-.81c-.91-.77-2.07-1.17-3.26-1.14-1.76,0-3.02,1.11-3.02,2.6s.98,2.23,3.12,2.69c1.95.41,2.41.9,2.41,1.78,0,.94-.82,1.59-2.07,1.59s-2.21-.44-3.18-1.32l-.65.77c1.02.97,2.38,1.5,3.79,1.48,1.85,0,3.17-1.03,3.17-2.64,0-1.43-.96-2.19-3.02-2.64Z"/><polygon class="cls-2" points="245.59 87.03 246.66 87.03 246.66 82.8 251.81 82.8 251.81 81.82 246.66 81.82 246.66 78.43 252.42 78.43 252.42 77.44 245.59 77.44 245.59 87.03"/><rect class="cls-2" x="285.73" y="77.44" width="1.07" height="9.54"/><polygon class="cls-2" points="309.18 85.14 303.2 77.44 302.19 77.44 302.19 87.03 303.23 87.03 303.23 79.15 309.37 87.03 310.22 87.03 310.22 77.44 309.18 77.44 309.18 85.14"/><path class="cls-2" d="M279.37,81.7c-2.04-.44-2.52-.93-2.52-1.82s.77-1.55,1.94-1.55c.98,0,1.93.36,2.67,1.01l.61-.81c-.91-.77-2.07-1.17-3.26-1.14-1.76,0-3.02,1.11-3.02,2.6s.98,2.23,3.12,2.69c1.95.41,2.41.9,2.41,1.78,0,.94-.82,1.59-2.07,1.59s-2.21-.44-3.18-1.32l-.65.77c1.02.97,2.38,1.5,3.79,1.48,1.85,0,3.17-1.03,3.17-2.64,0-1.43-.96-2.19-3.02-2.64Z"/><path class="cls-2" d="M269.95,81.76c-2.04-.44-2.52-.93-2.52-1.82s.77-1.55,1.94-1.55c.98,0,1.93.36,2.67,1.01l.61-.81c-.91-.77-2.07-1.17-3.26-1.14-1.76,0-3.02,1.11-3.02,2.6s.98,2.23,3.12,2.69c1.95.41,2.41.9,2.41,1.78,0,.94-.82,1.59-2.07,1.59s-2.21-.44-3.18-1.32l-.65.77c1.02.97,2.38,1.5,3.79,1.48,1.85,0,3.17-1.03,3.17-2.64,0-1.43-.96-2.19-3.02-2.64Z"/><path class="cls-2" d="M284.26,64.72l-13.09-34.46c-.56-1.5-1.38-2.54-2.45-3.15-1.07-.61-2.4-.9-4.05-.9s-3.05.31-4.12.91c-1.07.61-1.9,1.65-2.5,3.15l-13.53,34.45H26.36c.19.4.82,2.19,2.89,3.49,3.18,2,6.58,2.02,7.65,2.02h211.52l14.64-37.3c.32-.71.83-1.07,1.59-1.07s1.26.4,1.54,1.07l14.14,37.3h51.48c1.06,0,4.46-.02,7.65-2.02,2.07-1.3,2.71-3.08,2.89-3.49h-58.08Z"/></svg>