<?xml version="1.0" encoding="UTF-8"?><svg xmlns="http://www.w3.org/2000/svg" viewBox="0 0 430.2 449.07"><g id="a"><path d="M40.69,234.5c-18.47-3.63-29.98,8.63-33.63,28.59-5.77,31.54,13.24,45.43,31.67,58.42l22.01,7.67,30.61-85.36-50.65-9.32Z" fill="#fff" stroke="#1a1a1a" stroke-linecap="round" stroke-linejoin="round" stroke-width="12"/><path d="M358.85,242.87c10.16-5.8,21.58-11.26,31.77-3.21,18.95,14.99,21.2,36.96,19.56,59.19-1.1,14.87-37.84,41.54-50.32,37.51l-17.33-47.7,16.33-45.8Z" fill="#fff" stroke="#1a1a1a" stroke-linecap="round" stroke-linejoin="round" stroke-width="12"/><path d="M49.85,231.87c-8.79,27.72-1.79,56.01-2.68,84.01-1.89,59.34,33.07,106.18,90.77,119.07,54.35,12.14,109.2,11.94,161.8-9.35,33.13-13.41,45.95-45.51,60.75-74.42,11.86-23.16,7.99-48.86,5.85-73.82l9.53-87.73L58.43,154.74l-8.58,77.13Z" fill="#fff" stroke="#1a1a1a" stroke-linecap="round" stroke-linejoin="round" stroke-width="12"/><path d="M169.35,352.04c6.43,26.44,38.14,27.91,54,9" fill="none" stroke="#1a1a1a" stroke-linecap="round" stroke-linejoin="round" stroke-width="12"/><path d="M286.74,299.32c-1.44,5.2-3.5,11.73-10.94,11.62-8.06-.12-14.45-3.89-14.7-13.48-.25-9.87,7.01-12.69,14.33-13.11,8.81-.51,10.85,6.56,11.3,14.97Z" fill="#1a1a1a"/><g id="b"><path d="M141.07,288.73c-1.44,5.2-3.5,11.73-10.94,11.62-8.06-.12-14.45-3.89-14.7-13.48-.25-9.87,7.01-12.69,14.33-13.11,8.81-.51,10.85,6.56,11.3,14.97Z" fill="#1a1a1a"/></g><path d="M381.8,232.93s-1.62,54.68-27.38,72.74c-8.92-22.46-17.41-34.81-25.71-42.99-5.83,13.95-3.34,32.87-12.27,33.75-13.21-38.94-52.51-86.86-52.51-86.86" fill="#1a1a1a"/></g><g id="c"><path d="M37.51,154.38c29.15-37.66,40.82-87.7,82.82-116.05,33.17-22.4,70.96-18.9,106.95-15.64,49.15,4.45,97.37,16.03,140.56,42.21,18.68,11.32,36.2,25.07,41.39,47.02,4.5,19.01,10.09,62.01,10.48,81.55" fill="#fe7829" stroke="#1a1a1a" stroke-linecap="round" stroke-linejoin="round" stroke-width="12"/><path d="M414.35,272.37c3.54,4.36,7.7-2.66,8.16-8.49,1.84-23.11,4.92-48.41-8.16-67.51-.59-.87-2-2.15-2.88-3.06-25.96-26.77-41.13-28.05-65.63-34.41-32.63-8.47-65.06-17.98-98.05-24.74-52.09-10.67-104.51-16.93-158.05-9.01-12.75,1.89-22.85,5.65-35.39,10.22-5.97,2.17-18.35,12.76-18.35,12.76-13.5,17.44-2.4,47.77-3.08,68.76-.25,7.69,2.74,18.52,15.43,17.98l19-39c3.33-1.5,6.61-4.16,10.01-4.33,56.82-2.81,112.98,4.4,168.94,12.7,17.16,2.55,30.57,6.3,51.06,12.12,64.41,18.29,87.97,20.27,117,56Z" fill="#fe7829" stroke="#1a1a1a" stroke-linecap="round" stroke-linejoin="round" stroke-width="12"/></g></svg>